<svg xmlns="http://www.w3.org/2000/svg" width="18.095" height="15" viewBox="0 0 18.095 15">
	<path d="M9.436 15a.873.873 0 0 1-.518-.171l-4.47-3.664a.293.293 0 0 0-.185-.066H.876A.877.877 0 0 1 0 10.223V4.775a.877.877 0 0 1 .876-.876h3.389a.293.293 0 0 0 .185-.066L8.9.186a.875.875 0 0 1 1.415.689v13.248a.877.877 0 0 1-.876.877ZM.973 10.126h3.291a1.268 1.268 0 0 1 .8.287l4.274 3.5V1.081L5.064 4.587a1.267 1.267 0 0 1-.8.286H.974Zm15.079 3.308a.487.487 0 0 1-.422-.728A9.467 9.467 0 0 0 17.122 7.5a9.3 9.3 0 0 0-1.49-5.2.48623554.48623554 0 0 1 .84-.49 10.29 10.29 0 0 1 1.623 5.693 10.461 10.461 0 0 1-1.621 5.69.486.486 0 0 1-.422.241Zm-2.335-2.335a.487.487 0 0 1-.434-.7 6.435 6.435 0 0 0 .727-2.9 6.243 6.243 0 0 0-.725-2.892.48658324.48658324 0 0 1 .867-.442 7.193 7.193 0 0 1 .831 3.334 7.4 7.4 0 0 1-.83 3.331.486.486 0 0 1-.436.269Z" fill="#fff"/>
</svg>